<svg xmlns="http://www.w3.org/2000/svg" viewBox="0 0 37 27"><path d="M31.75,9.25l-8.08,3.31L19.26,7.37a1,1,0,0,0-1.52,0l-4.41,5.19L5.26,9.25a1,1,0,0,0-1.37,1.09L5.83,21.68a1,1,0,0,0,1,.83H30.19a1,1,0,0,0,1-.83l1.94-11.34a1,1,0,0,0-.36-.94A1,1,0,0,0,31.75,9.25ZM29.34,20.51H7.66L6.17,11.79l7.08,2.9a1,1,0,0,0,1.14-.28L18.5,9.56l4.11,4.85a1,1,0,0,0,1.14.28l7.08-2.9Z"/><path d="M30,25H6.81a1,1,0,0,0,0,2H30a1,1,0,0,0,0-2Z"/><path d="M5.88,5.68A2.94,2.94,0,1,0,2.94,8.59,2.93,2.93,0,0,0,5.88,5.68Zm-2.94.91a.92.92,0,1,1,.94-.91A.93.93,0,0,1,2.94,6.59Z"/><path d="M18.5,5.83a2.93,2.93,0,0,0,2.94-2.91,2.94,2.94,0,0,0-5.88,0A2.93,2.93,0,0,0,18.5,5.83ZM18.5,2a.92.92,0,1,1-.94.92A.93.93,0,0,1,18.5,2Z"/><path d="M34.06,2.76A2.92,2.92,0,1,0,37,5.68,2.93,2.93,0,0,0,34.06,2.76Zm0,3.83A.92.92,0,1,1,35,5.68.93.93,0,0,1,34.06,6.59Z"/></svg>